<svg xmlns="http://www.w3.org/2000/svg" width="51" height="61"><path fill="#7fcdc7" d="M50.839 19.68c.055.46.091.936.091 1.444v34.204c0 2.984-2.443 5.412-5.447 5.412H27.888a5.262 5.262 0 01-2.008-.406 5.422 5.422 0 01-2.05.406H6.237c-3.004 0-5.449-2.427-5.449-5.41V28.227c-.001-.035-.002-.07 0-.105v-6.998c0-5.326 3.216-7.967 5.564-9.894.28-.232.553-.456.812-.675a2.05 2.05 0 00.207-.208c.225-.264.318-.583.273-.947-.063-.509-.396-1.034-.87-1.372-.005-.004-.009-.01-.013-.012a3.458 3.458 0 01-.54-.49c-.035-.04-.066-.082-.1-.122a3.411 3.411 0 01-.334-.492c-.031-.055-.062-.107-.09-.163a3.235 3.235 0 01-.206-.55c-.017-.056-.038-.11-.052-.166a3.365 3.365 0 01-.092-.755V4.146C5.347 2.274 6.88.75 8.765.75h12.536c1.885 0 3.42 1.524 3.42 3.396v1.132c0 .257-.036.506-.09.747-.012.054-.035.105-.05.158-.052.19-.116.37-.2.542-.028.062-.063.12-.096.178a3.416 3.416 0 01-.439.62c-.12.134-.25.255-.39.37-.037.031-.066.071-.106.1-.483.36-.787.91-.812 1.465-.014.297.051.722.436 1.07l.023.02c.26.225.534.455.817.69.654.547 1.377 1.155 2.076 1.861.716-.71 1.46-1.327 2.14-1.888.272-.223.536-.442.788-.656.073-.064.144-.135.206-.208.226-.264.318-.583.274-.947-.063-.509-.397-1.034-.87-1.372-.005-.004-.009-.01-.013-.012a3.458 3.458 0 01-.54-.49c-.035-.04-.067-.082-.1-.122a3.512 3.512 0 01-.335-.492c-.03-.055-.061-.107-.089-.163a3.393 3.393 0 01-.207-.55c-.017-.056-.039-.11-.052-.166a3.365 3.365 0 01-.093-.755V4.146C27 2.274 28.533.75 30.42.75h12.535c1.885 0 3.419 1.524 3.419 3.396v1.132c0 .257-.036.506-.09.747-.012.054-.034.105-.05.158-.052.189-.115.37-.199.542-.028.062-.064.12-.097.178a3.424 3.424 0 01-.438.62c-.12.134-.251.255-.39.37-.038.031-.066.071-.106.1-.483.36-.787.908-.813 1.465-.014.295.05.722.437 1.07l.022.02c.26.225.533.454.816.69 1.896 1.583 4.364 3.651 5.185 7.29.07.083.142.164.188.268.126.294.116.61.001.884zm-2.197 8.235H38.385v19.242h10.257v-2.264h-3.42c-.628 0-1.139-.505-1.139-1.131s.51-1.132 1.14-1.132h3.419v-2.264h-5.698c-.63 0-1.14-.506-1.14-1.132 0-.626.51-1.132 1.14-1.132h5.698v-5.66h-3.42c-.628 0-1.139-.505-1.139-1.131s.51-1.132 1.14-1.132h3.419zM29.279 5.278c0 .138.034.268.08.39.01.026.018.054.029.079.049.105.115.197.193.283.034.037.074.07.113.103.199.166.445.277.724.277h12.536a1.145 1.145 0 00.955-.55c.023-.038.054-.068.072-.107.07-.146.113-.308.113-.475V4.146c0-.625-.512-1.132-1.14-1.132H30.418c-.628 0-1.14.507-1.14 1.132zm-1.915 9.57c.303.433.582.9.83 1.402.008.013.013.027.019.039a9.6 9.6 0 01.163.356c2.99-.24 5.534.677 7.99 1.575 1.128.413 2.295.841 3.484 1.142 2.634.665 5.348.426 8.454-.744-.745-2.645-2.607-4.227-4.307-5.648-.294-.247-.581-.485-.853-.722l-.03-.028a3.565 3.565 0 01-1.202-2.866c.01-.231.062-.456.112-.68H31.45c.037.15.09.298.109.45a3.44 3.44 0 01-.8 2.69 4.4 4.4 0 01-.452.454c-.265.226-.54.452-.824.685-.715.587-1.449 1.192-2.125 1.881l.006.013zM7.626 5.277c0 .138.034.268.08.39.01.026.018.054.03.079a1.105 1.105 0 00.306.386c.198.166.444.277.723.277h12.536a1.145 1.145 0 00.955-.55c.023-.038.054-.068.072-.107.07-.146.113-.308.113-.475V4.146c0-.625-.512-1.132-1.14-1.132H8.765c-.627 0-1.14.507-1.14 1.132zM3.067 21.124v6.287c4.379 1.736 7.25 1.723 11.376-.025 4.213-1.784 7.878-2.573 12.556-1.025v-5.236c0-.526-.04-1.017-.11-1.48l-.002-.028a8.251 8.251 0 00-.294-1.25l-.03-.099a7.865 7.865 0 00-.518-1.212 8.86 8.86 0 00-.53-.883c-.012-.018-.022-.036-.035-.054-.889-1.271-2.048-2.24-3.135-3.148a48.158 48.158 0 01-.853-.723l-.031-.027a3.564 3.564 0 01-1.201-2.866c.01-.23.06-.456.111-.681H9.797c.037.15.09.298.11.45a3.441 3.441 0 01-.8 2.69 4.41 4.41 0 01-.453.454c-.273.233-.557.466-.85.706-2.22 1.823-4.737 3.89-4.737 8.15zm3.169 37.352H23.83a3.16 3.16 0 001.193-.236l.294-.159a3.231 3.231 0 001.229-1.157l.003-.005a3.16 3.16 0 00.299-.681c.013-.044.03-.088.042-.135.067-.25.11-.51.11-.776V28.772c-3.89-1.491-6.944-1.305-11.663.694C12.943 30.48 10.89 30.99 8.8 30.99c-1.799 0-3.638-.397-5.733-1.156V55.33c0 1.735 1.421 3.146 3.169 3.146zm42.416-3.15V49.42H36.106V25.65H48.65v-4.527c0-.078-.015-.144-.016-.22-2.045.721-3.964 1.095-5.816 1.095-1.195 0-2.366-.15-3.532-.445-1.304-.33-2.527-.776-3.71-1.21-2.165-.793-4.224-1.53-6.513-1.467.03.157.062.314.086.476.007.05.01.1.017.149.068.514.111 1.05.111 1.623v34.21c0 .328-.038.65-.098.967-.022.126-.059.247-.09.37a5.605 5.605 0 01-.352.968c-.057.117-.122.228-.187.34-.097.17-.192.34-.306.497h17.239c1.747 0 3.17-1.413 3.17-3.15z"/></svg>