<svg xmlns="http://www.w3.org/2000/svg" width="46" height="61"><path fill="#7fcdc7" d="M46.025 37.663c0 12.544-10.207 22.749-22.754 22.749C10.725 60.412.518 50.207.518 37.663c0-5.089 1.175-10.212 3.493-15.228 1.844-3.992 4.411-7.922 7.63-11.684C17.112 4.361 22.504.715 22.73.563a.972.972 0 011.084 0C24.04.715 29.43 4.36 34.9 10.75c3.22 3.762 5.787 7.692 7.632 11.684 2.317 5.016 3.493 10.14 3.493 15.228zm-1.945 0c0-4.805-1.115-9.654-3.314-14.413-1.769-3.829-4.24-7.608-7.343-11.235-4.315-5.04-8.659-8.372-10.151-9.454-1.498 1.087-5.869 4.44-10.187 9.495-3.095 3.623-5.558 7.398-7.321 11.222-2.19 4.75-3.301 9.59-3.301 14.385 0 11.472 9.334 20.804 20.808 20.804S44.08 49.135 44.08 37.663zm-2.725 4.377a18.655 18.655 0 01-9.327 12.032.973.973 0 01-.918-1.713 16.71 16.71 0 008.355-10.776.972.972 0 111.89.457zm.52-4.377a.972.972 0 11-1.944 0c0-.663-.025-1.337-.074-2a.972.972 0 011.94-.145c.052.712.079 1.434.079 2.145zm-21.78-8.295v12.444a.972.972 0 01-1.945 0v-5.25h-6.353v5.25a.972.972 0 01-1.944 0V29.368a.972.972 0 011.944 0v5.25h6.353v-5.25a.972.972 0 011.945 0zm11.474 13.416a5.127 5.127 0 01-5.121-5.12v-4.148a5.127 5.127 0 015.12-5.12 5.127 5.127 0 015.122 5.12v4.147a5.127 5.127 0 01-5.121 5.12zm0-1.945a3.18 3.18 0 003.176-3.176v-4.147a3.18 3.18 0 00-3.176-3.176 3.18 3.18 0 00-3.177 3.176v4.147a3.18 3.18 0 003.177 3.176zm-8.363 5.639v.583h2.658a.972.972 0 110 1.944h-3.63a.972.972 0 01-.972-.972v-1.555a2.53 2.53 0 012.528-2.528h.518a.584.584 0 000-1.166h-1.037a.065.065 0 00-.065.065.972.972 0 11-1.944 0c0-1.109.901-2.01 2.01-2.01h1.036a2.53 2.53 0 012.529 2.528 2.53 2.53 0 01-2.529 2.527h-.518a.584.584 0 00-.584.584z"/></svg>