<svg xmlns="http://www.w3.org/2000/svg" width="60" height="56"><path fill="#7fcdc7" d="M59.452 23.07c-1.244 5.251-4.119 10.026-8.31 13.808L29.868 55.772 8.957 36.877C4.765 33.095 1.89 28.32.646 23.07c-.864-3.64-.58-5.873-.51-6.297C1.01 7.172 7.837.205 16.38.205c5.6 0 10.598 2.988 13.503 7.938C32.816 3.256 38.027.206 43.718.206c8.543 0 15.37 6.967 16.246 16.569.068.424.352 2.656-.512 6.295zm-1.768-5.936C56.918 8.612 51.05 2.506 43.719 2.506c-5.539 0-10.554 3.39-12.778 8.636l-1.063 2.509-1.064-2.51c-2.26-5.327-7.023-8.637-12.434-8.637-7.333 0-13.2 6.107-13.95 14.519l-.017.116c-.001.013-.337 1.958.48 5.403 1.137 4.795 3.77 9.163 7.615 12.632L29.883 52.68l19.714-17.51c3.838-3.462 6.472-7.831 7.607-12.626.818-3.445.482-5.392.48-5.41zM19.659 8.34c0 .635-.516 1.15-1.154 1.15-5.092 0-9.236 4.124-9.236 9.194 0 .635-.516 1.15-1.154 1.15a1.151 1.151 0 01-1.155-1.15c0-6.338 5.18-11.494 11.545-11.494.637 0 1.154.514 1.154 1.15z"/></svg>