<svg xmlns="http://www.w3.org/2000/svg" width="40" height="40"><path fill="#f6fafa" d="M34.16 34.142c-6.585 6.584-16.611 7.615-24.277 3.11l-.041-.034c-3.018 2.278-6.252 2.669-8.505 2.32-.748-.117-.906-1.13-.224-1.463 2.061-1.015 3.358-3.027 4.115-4.656l-.208-.167c-6.959-7.856-6.676-19.877.84-27.393 7.806-7.815 20.468-7.815 28.283 0 7.814 7.807 7.814 20.477.016 28.283zm-7.574-7.723a300.328 300.328 0 00-2.328-2.328c-.632-.632-1.43-.632-2.07 0-.483.482-.973.965-1.447 1.455-.125.133-.241.166-.399.075-.316-.175-.649-.308-.948-.5-1.413-.88-2.594-2.02-3.633-3.3-.515-.631-.98-1.313-1.297-2.078-.066-.158-.05-.258.075-.383.49-.465.964-.948 1.438-1.43.665-.673.665-1.454 0-2.128-.374-.382-.756-.756-1.139-1.139-.39-.39-.773-.78-1.172-1.172-.64-.624-1.438-.631-2.078 0-.49.482-.956.973-1.455 1.447-.457.44-.69.972-.74 1.596-.075 1.014.174 1.97.524 2.91.723 1.937 1.812 3.65 3.134 5.22a19.334 19.334 0 006.426 5.03c1.123.549 2.295.973 3.559 1.04.864.05 1.629-.167 2.236-.848.416-.466.881-.882 1.322-1.33.657-.657.657-1.455-.009-2.137zm-3.875-9.037a6.105 6.105 0 011.713 3.3l1.77-.307a7.85 7.85 0 00-2.21-4.265 7.891 7.891 0 00-4.515-2.253l-.25 1.78a6.07 6.07 0 013.492 1.745zm8.148 2.685a13.139 13.139 0 00-3.675-7.083 13.035 13.035 0 00-7.482-3.733l-.25 1.779c2.47.35 4.706 1.463 6.468 3.226a11.349 11.349 0 013.168 6.119z" opacity=".95"/></svg>