<svg xmlns="http://www.w3.org/2000/svg" width="26" height="24"><path fill="#121920" d="M13.186 21.717c0 1.259-1.003 2.282-2.235 2.282-1.233 0-2.235-1.023-2.235-2.282 0-1.257 1.002-2.28 2.235-2.28 1.232 0 2.235 1.023 2.235 2.28zm-1.248 0a.999.999 0 00-.987-1.007.999.999 0 00-.987 1.007.999.999 0 00.987 1.008.998.998 0 00.987-1.008zm9.088 0c0 1.259-1.002 2.282-2.235 2.282-1.232 0-2.235-1.023-2.235-2.282 0-1.257 1.003-2.28 2.235-2.28 1.233 0 2.235 1.023 2.235 2.28zm-1.247 0a.999.999 0 00-.988-1.007.999.999 0 00-.987 1.007.999.999 0 00.987 1.008.998.998 0 00.988-1.008zm.187-13.652a.63.63 0 01-.624.636h-8.943a.63.63 0 01-.624-.636.63.63 0 01.624-.637h8.943a.63.63 0 01.624.637zm-.487 3.307a.63.63 0 01-.624.636h-7.97a.63.63 0 01-.623-.636.63.63 0 01.624-.637h7.969a.63.63 0 01.624.637zm6.205-5.72l-1.746 8.645a1.26 1.26 0 01-1.222 1.017H7.283l.367 1.82H22.6a.63.63 0 01.624.636.63.63 0 01-.624.637H7.65a1.259 1.259 0 01-1.222-1.017L3.408 2.434.67 1.221A.642.642 0 01.346.383a.62.62 0 01.82-.33l2.74 1.213c.372.165.643.505.725.911l.392 1.944h19.438c.377 0 .73.172.968.47s.33.685.255 1.061zm-1.223-.257H5.281l1.745 8.646h15.69z"/></svg>