<svg xmlns="http://www.w3.org/2000/svg" width="90" height="90"><path fill="#fff" d="M89.374 44.991c0 7.227-1.764 14.408-5.102 20.765a1.448 1.448 0 11-2.565-1.347c3.12-5.943 4.77-12.658 4.77-19.418 0-11.171-4.35-21.674-12.249-29.574-7.899-7.9-18.4-12.25-29.57-12.25-6.626 0-12.961 1.504-18.83 4.469a42.221 42.221 0 00-12.148 9.26l4.984-.83a1.45 1.45 0 01.476 2.858l-9.272 1.545a1.45 1.45 0 01-1.667-1.667L9.746 9.53a1.45 1.45 0 012.858.477l-.77 4.623a45.118 45.118 0 0112.687-9.58C30.799 1.878 37.574.27 44.657.27c11.945 0 23.174 4.651 31.62 13.099 8.446 8.446 13.097 19.677 13.097 31.622zm-8.261 26.19l-1.546 9.272a1.45 1.45 0 01-2.857-.476l.768-4.612c-8.456 9.158-20.23 14.348-32.82 14.348-11.945 0-23.175-4.652-31.621-13.099C4.591 68.168-.06 56.937-.06 44.991c0-7.227 1.764-14.407 5.102-20.764a1.449 1.449 0 012.565 1.347 41.927 41.927 0 00-4.77 19.417c0 11.172 4.35 21.675 12.248 29.574 7.9 7.9 18.401 12.25 29.572 12.25 11.917 0 23.049-4.97 30.977-13.73l-4.984.832a1.45 1.45 0 01-.476-2.859l9.272-1.545a1.45 1.45 0 011.667 1.667zM60.758 42.19l-17.92 32.86a1.45 1.45 0 01-2.71-.863l2.9-24.655h-9.77a2.21 2.21 0 01-1.733-.831 2.214 2.214 0 01-.436-1.873l5.973-26.878a1.448 1.448 0 011.414-1.134h15.453a1.448 1.448 0 011.352 1.969l-6.97 18.121h10.497c.792 0 1.506.407 1.91 1.088a2.2 2.2 0 01.04 2.199zm-3.088-.387H46.203a1.448 1.448 0 01-1.353-1.97l6.97-18.121H39.638l-5.537 24.92h10.556a1.45 1.45 0 011.439 1.619L43.88 67.087z"/></svg>